# xmcd
#
# Track frame offsets: 
#        150
#        16246
#        35312
#        54750
#        72003
#        88877
#        104775
#        124800
#        143552
#        162973
#        184569
#
# Disc length: 2720 seconds
#
# Revision: 0
# Processed by: cddbd v1.5.2PL0 Copyright (c) Steve Scherf et al.
# Submitted via: ExactAudioCopy v0.99pb4
#
DISCID=8a0a9e0b
DTITLE=Mijares - Que Nada Nos Separe
DYEAR=1991
DGENRE=Pop
TTITLE0=Cuando Te Hago El Amor
TTITLE1=Un Amor Por Llegar
TTITLE2=Que Nada Nos Separe
TTITLE3=Luna Llena
TTITLE4=En Carne Viva
TTITLE5=Buena Fortuna
TTITLE6=No Hace Falta
TTITLE7=Persona A Persona
TTITLE8=Bonita
TTITLE9=Me Cuesta Trabajo
TTITLE10=Desnuda
EXTD=
EXTT0=
EXTT1=
EXTT2=
EXTT3=
EXTT4=
EXTT5=
EXTT6=
EXTT7=
EXTT8=
EXTT9=
EXTT10=
PLAYORDER=
